# xmcd CD database file
#
# Track frame offsets:
#	150
#	7865
#	24340
#	41089
#	53107
#	67495
#	81612
#	98840
#	108550
#	122495
#	140460
#	152797
#	168290
#
# Disc length: 2574 seconds
#
# Revision: 0
# Processed by: cddbd v1.4PL0 Copyright (c) Steve Scherf et al.
# Submitted via: CDex 1.40Beta9
#
DISCID=ac0a0c0d
DTITLE=Anthony Gomes - Sweet Stringing Soul
DYEAR=2000
DGENRE=Blues
TTITLE0=Sweet Stringing Soul
TTITLE1=Higher
TTITLE2=Low Down Dirty Deal
TTITLE3=When I Play The Blues
TTITLE4=Bring My Baby Back Home
TTITLE5=Trouble In Our Land
TTITLE6=We Were Made To Fall In Love
TTITLE7=Hamhock Booty
TTITLE8=Heartbreak Train
TTITLE9=Please Be Mine
TTITLE10=Wolf In The Henhouse (part 1)
TTITLE11=Jackleg Preacher
TTITLE12=Pain In My Heart
EXTD=YEAR: 2000 ID3G: 0
EXTT0=
EXTT1=
EXTT2=
EXTT3=
EXTT4=
EXTT5=
EXTT6=
EXTT7=
EXTT8=
EXTT9=
EXTT10=
EXTT11=
EXTT12=
PLAYORDER=
